<svg xmlns="http://www.w3.org/2000/svg" xmlns:xlink="http://www.w3.org/1999/xlink" width="80" height="80" fill="none" viewBox="0 0 80 80"><linearGradient id="a" x1="8" x2="55.912" y1="52" y2="12.779" gradientUnits="userSpaceOnUse"><stop offset="0" stop-color="#fff9cf"/><stop offset="1" stop-color="#ffec6e"/></linearGradient><path fill="#fff" d="m0 0h80v80h-80z"/><rect width="44" height="44" x="8" y="8" fill="url(#a)" opacity=".6" rx="1.5"/><path fill="#000" d="m26 26h44v44h-44z"/><rect width="44" height="44" x="17" y="17" fill="#ffec6e" rx="1.5"/><g stroke="#000" stroke-linecap="round" stroke-linejoin="round" stroke-width="2"><path fill-rule="evenodd" d="m31.5 40.167c0-1.1046.8954-2 2-2h11c1.1046 0 2 .8954 2 2v5.1667c0 1.1045-.8954 2-2 2h-11c-1.1046 0-2-.8955-2-2z" clip-rule="evenodd"/><path d="m34.833 38.167v-3.3333c0-2.3012 1.8655-4.1667 4.1667-4.1667s4.1666 1.8655 4.1666 4.1667v3.3333"/></g></svg>